<?xml version="1.0" encoding="UTF-8"?>
<!DOCTYPE svg PUBLIC "-//W3C//DTD SVG 1.1//EN" "http://www.w3.org/Graphics/SVG/1.1/DTD/svg11.dtd">
<!-- Creator: CorelDRAW 2021 (64-Bit) -->
<svg xmlns="http://www.w3.org/2000/svg" xml:space="preserve" width="40.6398mm" height="24.384mm" version="1.1" style="shape-rendering:geometricPrecision; text-rendering:geometricPrecision; image-rendering:optimizeQuality; fill-rule:evenodd; clip-rule:evenodd"
viewBox="0 0 2860.26 1716.16"
 xmlns:xlink="http://www.w3.org/1999/xlink"
 xmlns:xodm="http://www.corel.com/coreldraw/odm/2003">
 <defs>
  <style type="text/css">
   <![CDATA[
    .fil0 {fill:white}
   ]]>
  </style>
 </defs>
 <g id="Layer_x0020_1">
  <metadata id="CorelCorpID_0Corel-Layer"/>
  <g id="_2380024645616">
   <path class="fil0" d="M2562.32 1525.47l-2252.46 0c-81.06,0 -119.18,-26.1 -119.18,-107.26l0 -1108.35c0,-81.06 26.1,-119.18 107.26,-119.18l2252.46 0c81.06,0 119.18,26.1 119.18,107.26l0 1108.35c0,81.06 -26.1,119.18 -107.26,119.18zm-2562.32 -1263.28l0 1197.73c0,100.91 67.67,184.76 158.78,228.55 26.06,12.53 67.9,27.69 103.41,27.69l2341.84 0c58.66,0 139.52,-37.98 177.11,-79.12 38.82,-42.49 79.11,-124.48 79.11,-183.07l0 -1197.73c0,-58.66 -37.98,-139.52 -79.11,-177.11 -42.49,-38.82 -124.48,-79.12 -183.07,-79.12l-2341.84 0c-144.2,0 -256.23,146.08 -256.23,262.2z"/>
   <polygon class="fil0" points="762.74,1334.79 2097.52,1334.79 2097.52,1144.11 762.74,1144.11 "/>
   <polygon class="fil0" points="762.74,953.43 953.42,953.43 953.42,762.74 762.74,762.74 "/>
   <polygon class="fil0" points="381.36,953.43 572.05,953.43 572.05,762.74 381.36,762.74 "/>
   <polygon class="fil0" points="1144.1,953.43 1334.78,953.43 1334.78,762.74 1144.1,762.74 "/>
   <polygon class="fil0" points="1525.47,953.43 1716.16,953.43 1716.16,762.74 1525.47,762.74 "/>
   <polygon class="fil0" points="1906.84,953.43 2097.52,953.43 2097.52,762.74 1906.84,762.74 "/>
   <polygon class="fil0" points="2288.21,953.43 2478.89,953.43 2478.89,762.74 2288.21,762.74 "/>
   <polygon class="fil0" points="381.36,572.05 572.05,572.05 572.05,381.37 381.36,381.37 "/>
   <polygon class="fil0" points="762.74,572.05 953.42,572.05 953.42,381.37 762.74,381.37 "/>
   <polygon class="fil0" points="1144.1,572.05 1334.78,572.05 1334.78,381.37 1144.1,381.37 "/>
   <polygon class="fil0" points="1525.47,572.05 1716.16,572.05 1716.16,381.37 1525.47,381.37 "/>
   <polygon class="fil0" points="1906.84,572.05 2097.52,572.05 2097.52,381.37 1906.84,381.37 "/>
   <polygon class="fil0" points="2288.21,572.05 2478.89,572.05 2478.89,381.37 2288.21,381.37 "/>
   <polygon class="fil0" points="2288.21,1334.79 2478.89,1334.79 2478.89,1144.11 2288.21,1144.11 "/>
   <polygon class="fil0" points="381.36,1334.79 572.05,1334.79 572.05,1144.11 381.36,1144.11 "/>
  </g>
 </g>
</svg>
