<?xml version="1.0" encoding="UTF-8"?>
<!DOCTYPE svg PUBLIC "-//W3C//DTD SVG 1.1//EN" "http://www.w3.org/Graphics/SVG/1.1/DTD/svg11.dtd">
<!-- Creator: CorelDRAW 2021 (64-Bit) -->
<svg xmlns="http://www.w3.org/2000/svg" xml:space="preserve" width="42.0404mm" height="43.3492mm" version="1.1" style="shape-rendering:geometricPrecision; text-rendering:geometricPrecision; image-rendering:optimizeQuality; fill-rule:evenodd; clip-rule:evenodd"
viewBox="0 0 1173.24 1209.77"
 xmlns:xlink="http://www.w3.org/1999/xlink"
 xmlns:xodm="http://www.corel.com/coreldraw/odm/2003">
 <defs>
  <style type="text/css">
   <![CDATA[
    .fil0 {fill:white}
   ]]>
  </style>
 </defs>
 <g id="Layer_x0020_1">
  <metadata id="CorelCorpID_0Corel-Layer"/>
  <g id="_2380032462480">
   <path class="fil0" d="M194.66 264.64l53.43 19.82c73.59,25.74 144.08,14.82 194.36,-48.47 28.21,-35.5 31.57,-57.38 38.78,-100.63 1.66,-9.97 6.17,-29.84 6.42,-40.84l198.48 0c0.24,10.86 4.08,26.89 6.08,38.81 7.4,44.25 9.85,65.81 39.12,102.65 49.87,62.76 119.36,74.01 192.59,49.06l55.21 -20.41c27.36,51.71 71.68,120.4 99.24,172.49 -13.6,3.63 -62.91,50.91 -73.78,63.26 -49.63,56.4 -49.31,151.21 -1.11,207.74 27.35,32.07 34.02,30.71 63.55,56.96 6.24,5.54 2.77,5.27 11.34,7.56 -7.55,14.27 -15.57,27.91 -24.08,42.08l-50.2 86.85c-8.76,14.47 -17.44,29.36 -24.96,43.56 -6.94,-1.62 -19.18,-6.76 -25.99,-9.45 -33.75,-13.32 -57.92,-23.63 -96.88,-23.63 -75.24,0 -137.34,54.36 -156.27,122.55l-13.86 80.65 -198.48 0c-0.24,-10.86 -4.08,-26.89 -6.08,-38.81 -7.38,-44.16 -9.98,-65.12 -38.77,-103 -26.04,-34.26 -74.37,-61.39 -132.37,-61.39 -46.39,0 -88.53,26.73 -115.78,33.08 -28.33,-53.54 -71.02,-119.16 -99.24,-172.49 7.08,-1.89 60.08,-46.33 66.2,-54.31 23.2,-30.27 44.85,-55.77 44.85,-113.46 0,-80.14 -41.39,-113.2 -90.53,-152.84 -4.07,-3.29 -5.37,-3.97 -9.18,-7.36 -6.24,-5.54 -2.77,-5.27 -11.34,-7.56 7.55,-14.27 15.57,-27.91 24.08,-42.08 8.94,-14.88 16.14,-28.56 25.08,-43.44l50.07 -86.97zm122.87 -63.8c-46.16,0 -82.85,-33.08 -122.87,-33.08 -68.78,0 -89.01,61.71 -117.71,109.12l-41.41 72.01c-21.67,39.69 -57.32,83.72 -17.68,142.16 23.26,34.3 91.73,60.05 91.73,106.74 0,38.79 -8.34,48.27 -38.35,72.7 -46.52,37.88 -70.34,49.6 -70.34,111.6 0,27.94 39.88,88.62 55.35,114.77l62.75 107.37c13.14,18.39 44.25,37.76 75.65,37.76 41.51,0 72.24,-33.08 127.59,-33.08 22.72,0 45.46,20.21 53.64,36.14 19.11,37.18 2.93,99.94 48.28,140.75 14.77,13.29 34.83,23.95 56.39,23.95l212.66 0c20.96,0 40.54,-10.04 55.12,-22.85 47.05,-41.31 28.91,-101.69 49.54,-141.85 15.9,-30.94 41.09,-36.14 70.18,-36.14 35.26,0 126.04,75.68 186.35,-5.04 12.84,-17.19 48.51,-83 63.08,-107.05 15.43,-25.48 55.38,-87.3 55.38,-114.75 0,-51.46 -14.04,-66.49 -50.98,-95.52 -6.68,-5.25 -11.47,-9.6 -18.09,-14.99 -7.04,-5.73 -11.36,-8.83 -17.81,-15.27 -29.28,-29.23 -29.79,-73 -1.19,-101.69l35.75 -30.41c6.82,-5.52 11.03,-9.26 18.24,-14.84 37.52,-29.04 44.51,-85.13 20.39,-124.73 -21.49,-35.27 -89.22,-157.86 -104.42,-179.12 -13.14,-18.39 -44.25,-37.76 -75.65,-37.76 -51.01,0 -133.61,75.09 -179.53,-0.04 -24.41,-39.94 0.08,-120.45 -69.29,-157.53 -9.88,-5.29 -22.88,-10.19 -37.07,-10.19l-212.66 0c-13.86,0 -26.47,4.72 -35.52,9.37l-24.53 18c-40.41,40.41 -25.93,104.18 -45.44,138.86 -9.91,17.62 -31.02,34.6 -57.55,34.6z"/>
   <path class="fil0" d="M449.84 616.7c0,-43.25 6.66,-76.41 39.56,-109.3 63.86,-63.86 176.83,-50.88 220.38,36.03 18.88,37.67 19.8,83.41 0.79,121.35 -21.51,42.91 -67.38,77.16 -111.87,77.16 -30.15,0 -43.4,0.82 -71.7,-13.36 -16.48,-8.26 -25.3,-13.9 -37.6,-26.19 -11.79,-11.8 -17.8,-20.86 -25.4,-36.03 -6.02,-12.01 -14.15,-31.77 -14.15,-49.65zm-96.88 -16.54c0,247.56 329.07,335.58 445.82,103.21 69.68,-138.69 -28.64,-332.4 -216.62,-332.4 -91.78,0 -168.25,57.97 -207.17,135.44 -11.25,22.39 -22.02,61.05 -22.02,93.76z"/>
  </g>
 </g>
</svg>
