<?xml version="1.0" encoding="UTF-8"?>
<!DOCTYPE svg PUBLIC "-//W3C//DTD SVG 1.1//EN" "http://www.w3.org/Graphics/SVG/1.1/DTD/svg11.dtd">
<!-- Creator: CorelDRAW 2021 (64-Bit) -->
<svg xmlns="http://www.w3.org/2000/svg" xml:space="preserve" width="27.7706mm" height="43.3492mm" version="1.1" style="shape-rendering:geometricPrecision; text-rendering:geometricPrecision; image-rendering:optimizeQuality; fill-rule:evenodd; clip-rule:evenodd"
viewBox="0 0 274.52 428.53"
 xmlns:xlink="http://www.w3.org/1999/xlink"
 xmlns:xodm="http://www.corel.com/coreldraw/odm/2003">
 <defs>
  <style type="text/css">
   <![CDATA[
    .fil0 {fill:white}
   ]]>
  </style>
 </defs>
 <g id="Layer_x0020_1">
  <metadata id="CorelCorpID_0Corel-Layer"/>
  <g id="_2379450172272">
   <path class="fil0" d="M-0 309.68c0,29.24 16.09,61.75 36.2,81.81 15.04,15.01 34.7,27.24 56.04,32.68 10.57,2.69 19.12,3.88 27.44,4.36l36.83 0c19.59,0 48.83,-10.62 65.06,-22.83 19.11,-14.38 30.12,-27.09 40.96,-48.59 5.52,-10.95 12,-31.45 12,-47.43l0 -114.66 -274.52 0 0 114.66z"/>
   <path class="fil0" d="M147.31 34.32c0,4.34 6.29,0.72 19.06,14.41 5.69,6.1 8.56,16.73 8.56,25.76 0,13.54 1.5,48.19 -2.26,58.84 -3.52,9.94 -10.64,17.54 -20.06,21.79 -6.64,3 -5.3,-1.24 -5.3,19.81l127.22 0 0 -56.08c0,-15.65 -6.43,-36.42 -11.71,-46.87 -6.92,-13.68 -13.5,-23.98 -24.48,-34.94 -10.43,-10.41 -20.75,-17.77 -34.66,-24.76 -17.77,-8.93 -36.2,-12.27 -56.36,-12.27l0 34.32z"/>
   <path class="fil0" d="M-0 118.85l0 56.08 127.22 0c0,-20.72 1.31,-16.93 -4.72,-19.55 -9.46,-4.11 -16.78,-11.65 -20.41,-21.44 -4.13,-11.14 -2.49,-45.11 -2.49,-59.44 0,-16.12 7.78,-29.71 22.32,-36.27 2.68,-1.21 5.3,-1.18 5.3,-3.91l0 -34.32c-43.81,0 -78.08,18.05 -104.03,52.48 -4.68,6.21 -7.54,11.68 -11.2,18.93 -5.52,10.95 -12,31.45 -12,47.43z"/>
   <path class="fil0" d="M119.69 76.16l0 41.01c0,28.16 35.15,28.14 35.15,0l0 -41.01c0,-28.16 -35.15,-28.14 -35.15,0z"/>
  </g>
 </g>
</svg>
