<?xml version="1.0" encoding="UTF-8"?>
<!DOCTYPE svg PUBLIC "-//W3C//DTD SVG 1.1//EN" "http://www.w3.org/Graphics/SVG/1.1/DTD/svg11.dtd">
<!-- Creator: CorelDRAW 2021 (64-Bit) -->
<svg xmlns="http://www.w3.org/2000/svg" xml:space="preserve" width="43.3492mm" height="43.3492mm" version="1.1" style="shape-rendering:geometricPrecision; text-rendering:geometricPrecision; image-rendering:optimizeQuality; fill-rule:evenodd; clip-rule:evenodd"
viewBox="0 0 1153.57 1153.57"
 xmlns:xlink="http://www.w3.org/1999/xlink"
 xmlns:xodm="http://www.corel.com/coreldraw/odm/2003">
 <defs>
  <style type="text/css">
   <![CDATA[
    .fil0 {fill:white}
   ]]>
  </style>
 </defs>
 <g id="Layer_x0020_1">
  <metadata id="CorelCorpID_0Corel-Layer"/>
  <g id="_2380024608608">
   <path class="fil0" d="M696.2 790.83zm0 0zm457.37 -363.28l0 16.73c-1.41,17.23 -7.17,33.87 -17.32,47.59 -11.27,15.23 -83.84,85.81 -100.4,102.38 -23.09,23.08 -44.46,44.52 -67.62,67.56 -6.88,6.84 -9.06,11.4 -15.7,18.1l-67.8 67.39c-8.79,8.79 -6.18,11.63 -6.05,27.74l0.03 270.39c0.24,63.96 -44.28,108.14 -94.64,108.14l-689.44 0c-47.11,0 -94.63,-47.66 -94.63,-94.63l0 -964.31c0,-46.97 47.52,-94.63 94.63,-94.63l594.81 0c43.61,0 76.4,41.48 99.7,64.78 34.99,34.99 80.9,70.87 88.71,114.06 2.49,13.78 0.85,262.79 0.85,283.04 8.35,-5.59 87.25,-87.16 111.06,-107.49 36.77,-31.39 95.96,-28.86 135.1,10.03 17.27,17.16 26.85,40.02 28.71,63.13zm-457.37 363.28c0.54,-6.51 18.36,-62.84 23.13,-69.25 4.68,-6.29 10.37,-9.19 15.17,-16.37l46.79 45.58c-11.38,17.82 -21.04,19.85 -36.93,25.11 -12.05,3.99 -37.09,14 -48.17,14.92zm133.49 -87.31l-46.15 -47.35 162.19 -161.04 46.16 45.06 -162.21 163.33zm-223.61 141.39c0,23.6 12.45,36.05 36.05,36.05 7.28,0 127.17,-39.05 150.07,-48.2 8.17,-3.27 11.87,-6.65 18.91,-10.38 0,39.94 2.24,195.49 -0.06,227.5 -1.69,23.46 -15.2,36.11 -40.5,36.11l-662.4 0c-26.55,0 -40.56,-14 -40.56,-40.56l0 -937.28c0,-26.55 14,-40.56 40.56,-40.56l500.18 0 0 173.49c0,13.82 15.47,29.29 29.29,29.29l173.49 0 0 256.85c0,12.75 -145.09,135.9 -157.45,169.25 -7.95,21.46 -47.58,139.39 -47.58,148.44zm434.84 -353.73l-45.61 -44.51c9.35,-13.61 39.66,-45.61 56.88,-45.61 21.64,0 39.73,23.3 30.68,46.39 -3.43,8.76 -34.25,38.58 -41.95,43.73zm-365 -423.58c28.56,0.64 50.39,31.24 77.17,58.02 26.78,26.77 57.38,48.61 58.02,77.17l-135.18 0 0 -135.18z"/>
   <path class="fil0" d="M135.18 367.25c0,21.87 10.97,38.3 29.29,38.3l482.16 0c38.9,0 38.9,-67.59 0,-67.59l-482.16 0c-13.81,0 -29.29,15.47 -29.29,29.29z"/>
   <path class="fil0" d="M135.18 502.43c0,21.87 10.97,38.3 29.29,38.3l346.97 0c38.9,0 38.9,-67.59 0,-67.59l-346.97 0c-13.81,0 -29.29,15.47 -29.29,29.29z"/>
   <path class="fil0" d="M135.18 637.62c0,21.87 10.97,38.3 29.29,38.3l346.97 0c38.9,0 38.9,-67.59 0,-67.59l-346.97 0c-13.81,0 -29.29,15.47 -29.29,29.29z"/>
   <path class="fil0" d="M135.18 772.8c0,21.87 10.97,38.3 29.29,38.3l346.97 0c38.9,0 38.9,-67.59 0,-67.59l-346.97 0c-13.81,0 -29.29,15.47 -29.29,29.29z"/>
   <path class="fil0" d="M405.55 980.09c0,21.87 10.97,38.3 29.29,38.3l211.79 0c38.9,0 38.9,-67.59 0,-67.59l-211.79 0c-13.82,0 -29.29,15.47 -29.29,29.29z"/>
  </g>
 </g>
</svg>
