<?xml version="1.0" encoding="UTF-8"?>
<!DOCTYPE svg PUBLIC "-//W3C//DTD SVG 1.1//EN" "http://www.w3.org/Graphics/SVG/1.1/DTD/svg11.dtd">
<!-- Creator: CorelDRAW 2021 (64-Bit) -->
<svg xmlns="http://www.w3.org/2000/svg" xml:space="preserve" width="43.3492mm" height="40.3012mm" version="1.1" style="shape-rendering:geometricPrecision; text-rendering:geometricPrecision; image-rendering:optimizeQuality; fill-rule:evenodd; clip-rule:evenodd"
viewBox="0 0 673.79 626.42"
 xmlns:xlink="http://www.w3.org/1999/xlink"
 xmlns:xodm="http://www.corel.com/coreldraw/odm/2003">
 <defs>
  <style type="text/css">
   <![CDATA[
    .fil0 {fill:white}
   ]]>
  </style>
 </defs>
 <g id="Layer_x0020_1">
  <metadata id="CorelCorpID_0Corel-Layer"/>
  <g id="_2380031433248">
   <path class="fil0" d="M311.89 511.92l50.01 0c1.18,5.07 16.21,29 19.74,35.53 3.22,5.95 6.65,11.28 10.08,17.56 2.84,5.2 8.51,13.04 9.66,17.97l-128.97 0c1.15,-4.93 25.29,-44.86 29.86,-53.04 2.69,-4.82 8.49,-13.18 9.62,-18.02zm-269.78 -51.32l0 -15.79 589.57 0c0,9.33 2.08,23.69 -5.26,23.69l-579.04 0c-4.05,0 -5.26,-3.85 -5.26,-7.9zm0 -411.91c0,-3.08 2.18,-5.26 5.26,-5.26l579.04 0c3.08,0 5.26,2.18 5.26,5.26l0 352.69 -589.57 0 0 -352.69zm-42.11 -3.95l0 422.44c0,20.23 17.68,37.73 34.01,42.32 17.04,4.79 53.09,2.42 75.22,2.42 51.32,0 102.65,0 153.97,0 -11.33,21.41 -27.48,46.36 -39.03,67.57 -4.52,8.29 -10.98,15.6 -10.98,25.87 0,11.8 9.52,21.06 21.06,21.06l205.3 0c11.95,0 21.06,-9.11 21.06,-22.37 0,-8.32 -7.41,-18.02 -10.98,-24.55 -4.4,-8.06 -8.72,-14.52 -13.11,-22.42l-25.91 -45.15c51.32,0 102.65,0 153.97,0 20.99,0 57.26,2.2 74.19,-2.14 17.12,-4.39 35.04,-22.09 35.04,-42.61l0 -422.44c0,-15 -7.05,-23.46 -14.79,-31.27 -7.93,-8 -18.54,-13.47 -33.9,-13.47l-576.41 0c-26.79,0 -48.69,21.31 -48.69,44.74z"/>
   <path class="fil0" d="M280.31 360.58c0,22.62 34.98,29.96 42.15,3.98 2.07,-7.5 3.74,-13.79 5.76,-21.88 7.31,-29.36 14.82,-56.66 22.11,-85.8 3.05,-12.19 43.16,-159.98 43.16,-172.66 0,-6.36 -5.76,-13.53 -10.15,-16.17 -10.91,-6.55 -27.52,-2.72 -31.99,13.5l-49.71 192.44c-3.52,14.07 -21.32,77.46 -21.32,86.59z"/>
   <path class="fil0" d="M134.23 219.77c0,13.39 0.28,12.82 10.86,23.36l83.57 83.57c7.41,7.46 8.81,10.2 21.39,10.2 8.28,0 18.42,-8.41 18.42,-22.37 0,-12.01 -10.89,-19.45 -17.44,-25.99l-65.47 -66.13 65.47 -64.81c10.83,-10.83 17.44,-13.26 17.44,-29.94 0,-9.16 -17.1,-31.19 -39.15,-8.89l-83.56 83.57c-4.29,4.28 -11.51,9.77 -11.51,17.44z"/>
   <path class="fil0" d="M405.33 130.28c0,13.67 9.47,19.34 17.44,27.31l65.47 64.81 -43.1 43.76c-7.56,7.56 -14.15,14.15 -21.71,21.71 -11.04,11.04 -18.09,13.28 -18.09,30.6 0,9.16 17.1,31.19 39.15,8.89l85.54 -85.54c5.06,-5.01 9.81,-8.66 10.06,-18.28 0.33,-12.48 -11.89,-21.06 -23.23,-32.39l-71.06 -71.06c-4.74,-4.75 -9.18,-10.86 -18.1,-10.86 -12.5,0 -22.37,8.5 -22.37,21.06z"/>
  </g>
 </g>
</svg>
